# xmcd CD database file
#
# Track frame offsets:
#	150
#	14949
#	30422
#	48028
#	60768
#	75370
#	86506
#	98556
#	115148
#	130064
#	145963
#	163398
#	179786
#	196607
#	209885
#
# Disc length: 2976 seconds
#
# Revision: 0
# Processed by: cddbd v1.5.2PL0 Copyright (c) Steve Scherf et al.
# Submitted via: CDex 1.51
#
DISCID=c60b9e0f
DTITLE=Pete and Instead - Dance Favourites
DYEAR=2001
DGENRE=Country
TTITLE0=Blue rose
TTITLE1=I want to dance with you
TTITLE2=Halfway to paradise
TTITLE3=Pretend
TTITLE4=Sweet Maria
TTITLE5=Honky Tonk Town
TTITLE6=Such a night
TTITLE7=Sweet sweet sweet
TTITLE8=Smokey places
TTITLE9=Carmen
TTITLE10=Ten Guitars
TTITLE11=Memories are made of this
TTITLE12=No Time at all
TTITLE13=Grandma
TTITLE14=All you ever do
EXTD=YEAR: 2001
EXTT0=
EXTT1=
EXTT2=
EXTT3=
EXTT4=
EXTT5=
EXTT6=
EXTT7=
EXTT8=
EXTT9=
EXTT10=
EXTT11=
EXTT12=
EXTT13=
EXTT14=
PLAYORDER=
